PathFileType	4	(X/Y/Z)	C:/Users/beibeiliu/ov580/test_trc\sequence.27_training_dense_left.trc
DataRate	CameraRate	NumFrames	NumMarkers	Units	OrigDataRate	OrigDataStartFrame	OrigNumFrames
120	120	23	19	mm	120	42	331
Frame#	Time	ThumbCMC			ThumbMCP			ThumbIP			ThumbTip			IndexMCP			IndexPIP			IndexTip			MiddleMCP			MiddlePIP			MiddleTip			RingMCP			RingPIP			RingTip			PinkyMCP			PinkyPIP			PinkyTip			BackHand1			BackHand2			BackHand3	
		X0	Y0	Z0	X1	Y1	Z1	X2	Y2	Z2	X3	Y3	Z3	X4	Y4	Z4	X5	Y5	Z5	X6	Y6	Z6	X7	Y7	Z7	X8	Y8	Z8	X9	Y9	Z9	X10	Y10	Z10	X11	Y11	Z11	X12	Y12	Z12	X13	Y13	Z13	X14	Y14	Z14	X15	Y15	Z15	X16	Y16	Z16	X17	Y17	Z17	X18	Y18	Z18	
41	0.341667	-182.792	34.0174	26.4824	-161.544	24.1476	10.4833	-144.975	22.6452	-13.6465	-136.278	17.9807	-29.6464	-189.336	31.0621	-38.8487	-181.52	30.2088	-56.8354	-175.381	26.1373	-77.7937	-185.917	4.32116	-43.8379	-163.13	-2.72781	-55.2789	-137.805	-16.692	-53.6029	-190.072	-14.9188	-34.4966	-162.96	-17.1984	-38.2629	-140.91	-17.9668	-23.6374	-204.722	-31.5451	-25.8012	-193.415	-37.1177	-40.7183	-182.501	-45.2615	-57.8999	-221.455	-0.742828	2.80733	-225.75	4.02938	28.856	-215.474	26.7286	17.6552	
42	0.35	-182.542	30.988	25.2493	-157.902	26.8299	9.83603	-148.46	19.143	-13.2763	-137.272	16.0586	-26.6574	-188.541	34.5079	-37.4463	-179.04	30.9706	-59.5522	-172.525	29.4375	-81.5964	-184.34	6.24874	-43.7349	-163.531	-3.25294	-55.4633	-134.402	-12.3895	-55.2674	-189.389	-13.3334	-33.2547	-161.596	-21.7532	-35.7103	-141.36	-19.0049	-20.6374	-204.678	-29.6997	-25.3913	-193.895	-34.7176	-41.3126	-184.213	-40.1657	-57.1902	-221.669	1.17918	5.81272	-226.077	3.05331	30.7655	-215	26.085	18.4901	
43	0.358333	-181.761	32.6656	28.1227	-160.641	24.6993	9.48543	-147.525	21.4334	-7.82477	-134.594	16.2705	-28.1816	-189.097	30.5495	-38.7154	-179.679	34.1979	-55.5096	-173.793	30.944	-76.1458	-187.603	6.77003	-40.2297	-161.89	0.741617	-56.1846	-139.52	-12.3049	-57.1994	-186.865	-11.4765	-34.9016	-164.141	-18.7122	-36.7533	-142.376	-22.0863	-18.4444	-204.127	-25.4552	-27.7548	-195.271	-33.3684	-40.3012	-187.04	-38.2729	-54.8472	-220.821	3.53251	3.42008	-228.102	1.26764	30.9659	-213.95	28.3056	20.0345	
44	0.366667	-184.014	29.9507	30.1746	-157.056	26.2398	10.6271	-144.098	23.0785	-12.4952	-137.363	15.93	-27.4326	-187.131	33.7706	-35.9139	-179.678	33.0626	-54.7879	-172.226	30.4117	-78.3879	-187.19	11.0167	-39.1634	-167.36	0.769038	-54.683	-140.075	-10.702	-60.1063	-186.787	-12.5383	-34.9499	-164.403	-18.8437	-36.3504	-143.052	-22.1987	-16.9111	-206.033	-24.1586	-23.3919	-194.416	-34.2067	-41.5268	-184.196	-37.071	-58.4566	-220.618	3.17774	5.92999	-225.326	6.79986	30.6737	-213.471	30.493	16.7224	
45	0.375	-181.25	31.4713	27.8353	-157.079	25.4078	7.59575	-146.798	20.3164	-8.8572	-135.584	17.4252	-23.6814	-186.328	35.2687	-37.1659	-176.699	34.9771	-57.3932	-170.695	33.3486	-78.026	-185.426	10.8504	-42.4009	-165.093	-1.95576	-57.2002	-143.172	-10.9538	-63.1458	-187.822	-7.08441	-34.2811	-164.488	-16.879	-35.4471	-142.465	-20.6395	-14.2091	-205.351	-25.1453	-27.8955	-196.502	-33.3453	-40.0209	-188.877	-36.2966	-55.7587	-222.448	1.15341	6.02977	-226.995	8.27462	32.4645	-212.981	29.4705	18.957	
46	0.383333	-179.742	33.9132	25.2236	-154.903	27.1237	9.19465	-145.564	21.902	-9.85591	-136.674	15.3781	-29.0638	-186.297	36.7789	-36.3466	-179.125	35.0593	-55.1982	-172.818	31.5945	-77.9559	-185.946	13.7912	-43.2692	-164.75	2.01313	-59.5012	-144.929	-11.1884	-64.5623	-190.804	-11.5766	-33.6516	-163.268	-16.2799	-35.3306	-145.461	-22.7058	-16.0416	-206.232	-24.1059	-28.869	-198.873	-27.6217	-38.9472	-189.07	-34.9653	-54.5257	-220.696	6.63233	3.98625	-225.982	7.32661	32.2982	-211.188	31.3337	18.3293	
47	0.391667	-178.202	34.0161	27.2929	-158.512	24.3691	7.95947	-142.369	24.1558	-12.4521	-132.073	19.6204	-26.2883	-185.454	37.4796	-39.2851	-177.371	37.4716	-54.3289	-171.755	37.5778	-77.6824	-189.077	13.37	-41.0262	-169.745	1.09862	-59.1121	-145.365	-9.6198	-66.7157	-187.489	-10.7517	-35.2392	-163.881	-16.0455	-34.2743	-145.24	-21.3378	-13.8211	-207.09	-20.4713	-25.9136	-197.68	-29.4202	-40.8864	-187.712	-35.182	-57.7232	-220.179	5.35368	7.41014	-225.764	11.0441	29.2351	-212.027	32.7493	18.3263	
48	0.4	-179.839	33.7775	30.3021	-158.546	24.8567	9.76675	-142.128	25.4683	-10.6667	-135.413	18.5284	-28.3129	-186.079	38.5614	-37.1246	-178.951	36.7379	-56.4327	-173.248	37.2554	-77.1157	-189.746	12.4952	-41.1463	-167.741	5.16362	-59.604	-143.928	-7.94808	-67.4173	-189.47	-5.64263	-32.2457	-163.363	-19.8894	-32.5792	-145.558	-15.862	-10.2984	-207.224	-22.7282	-28.2283	-196.519	-27.9832	-43.7279	-189.182	-32.6228	-56.037	-222.386	5.69827	7.08432	-225.529	9.41312	28.507	-214.049	29.6356	19.5249	
49	0.408333	-176.308	35.8549	27.0557	-158.736	25.7709	9.83561	-144.714	24.4352	-9.54147	-132.996	21.172	-27.436	-184.956	39.0128	-38.7575	-176.482	39.1715	-58.169	-171.533	40.1658	-76.5834	-188.881	15.0375	-42.8049	-170.829	4.21364	-59.1469	-147.726	-12.9132	-69.1872	-190.242	-7.29256	-34.2903	-163.055	-16.7392	-32.6615	-147.617	-20.6212	-12.2601	-208.869	-15.4169	-23.2917	-198.035	-23.0702	-41.0517	-189.227	-34.207	-58.0373	-222.241	9.57709	4.22989	-223.632	13.0902	30.9579	-211.585	32.9561	18.6484	
50	0.416667	-177.034	34.5596	32.4647	-156.621	26.4107	9.67249	-144.523	23.246	-7.92974	-130.347	21.8985	-24.3905	-183.586	40.8419	-32.8232	-178.95	37.6697	-57.4322	-172.134	41.5297	-74.5638	-189.198	15.1113	-41.3274	-171.925	4.60433	-59.9911	-153	-10.3047	-69.7455	-191.842	-4.39931	-32.8794	-164.592	-19.2941	-32.6006	-147.799	-20.6097	-10.4795	-208.4	-17.8085	-26.7385	-200.638	-26.3775	-40.1926	-188.081	-30.0732	-55.3341	-221.997	10.6636	7.17156	-227.065	12.6251	30.1699	-211.727	33.783	18.7939	
51	0.425	-175.524	34.0675	32.9002	-152.841	26.7353	12.6837	-143.89	21.7142	-7.59447	-129.839	19.945	-27.2047	-183.594	39.8992	-35.2868	-176.533	39.4773	-55.9118	-172.535	40.8251	-78.0588	-188.525	16.7301	-40.9473	-173.098	9.9305	-58.8184	-151.125	-10.9775	-73.7894	-190.044	-2.15462	-33.8418	-164.524	-15.3834	-34.7842	-150.326	-23.2862	-15.9773	-211.053	-17.9452	-24.2433	-197.076	-25.0654	-42.9331	-181.544	-28.689	-53.7821	-219.711	12.5637	5.68754	-226.253	11.4495	31.2572	-209.506	36.7172	18.5311	
52	0.433333	-177.934	32.5812	29.4832	-156.274	25.0025	13.3217	-140.462	23.6876	-12.5643	-130.583	18.5387	-26.8802	-184.524	38.5168	-34.4165	-177.439	38.6399	-54.9261	-172.414	39.9186	-77.5318	-188.425	15.549	-45.0603	-173.65	10.5258	-60.4088	-152.234	-4.06951	-74.3302	-194.184	-5.17557	-32.8705	-167.186	-15.2109	-37.1419	-149.858	-23.8993	-17.9879	-210.518	-16.752	-25.5288	-195.894	-24.2668	-43.2076	-177.914	-33.0302	-54.4766	-218.194	12.7842	4.70387	-227.83	12.8726	33.2364	-208.071	37.1259	16.6844	
53	0.441667	-174.555	33.1405	32.3394	-152.825	25.746	8.55235	-139.08	22.4071	-11.2447	-131.157	16.6634	-25.1752	-183.118	39.979	-33.3414	-175.169	40.739	-55.447	-170.146	43.2161	-73.424	-185.93	20.2742	-44.2419	-172.638	9.73631	-63.6099	-156.04	-4.90546	-77.2331	-190.618	0.171141	-35.368	-170.176	-15.4483	-38.8261	-151.011	-21.814	-23.7954	-210.561	-11.0537	-26.1635	-196.495	-19.392	-43.8497	-178.454	-27.6046	-52.3995	-222.196	13.0038	8.16436	-225.587	15.7478	31.4922	-205.867	38.7337	17.065	
54	0.45	-172.997	33.2223	27.6824	-153.457	23.7223	10.9519	-138.841	20.7484	-9.83459	-130.459	14.5184	-24.977	-181.688	40.3385	-34.4368	-174.132	42.0907	-58.5493	-169.536	43.7341	-74.4085	-189.793	17.6874	-43.5521	-172.388	10.0011	-64.0816	-156.261	-3.15234	-79.9341	-194.081	-2.79987	-34.8604	-169.504	-18.8971	-39.1611	-152.289	-22.7454	-22.7234	-210.429	-11.0091	-29.1221	-197.177	-19.0387	-44.48	-175.875	-25.7883	-48.5766	-220.693	14.4224	5.55694	-224.24	13.6803	32.4315	-203.46	37.1588	18.624	
55	0.458333	-173.844	30.6833	28.7407	-150.667	23.1134	8.59769	-140.896	17.9367	-9.7393	-125.652	14.3064	-26.5183	-181.973	39.9642	-32.7811	-173.822	40.8151	-56.1216	-169.05	43.8912	-76.175	-187.742	20.5376	-43.2699	-172.722	12.5093	-64.7597	-161.065	-2.5239	-79.0849	-193.284	1.85666	-34.4858	-167.317	-17.9411	-39.7043	-152.376	-23.3052	-22.4913	-212.143	-10.711	-28.2875	-198.406	-16.4496	-44.2651	-173.251	-29.0702	-46.7839	-216.965	16.4122	6.50057	-221.55	18.0949	30.1403	-205.444	37.9019	20.9152	
56	0.466667	-172.382	32.3195	27.2361	-149.653	23.9056	9.33781	-137.139	19.8663	-9.91468	-125.906	14.3998	-24.1837	-179.699	42.3891	-34.7792	-171.534	43.1122	-54.5317	-166.823	46.0843	-73.1587	-186.927	20.5415	-45.2065	-172.804	10.1772	-65.1083	-158.137	-4.71766	-81.0024	-192.926	0.891621	-34.3517	-167.084	-17.3193	-38.337	-150.938	-20.4519	-17.9531	-210.557	-8.45716	-25.2686	-198.441	-16.5786	-43.8076	-173.957	-28.1328	-46.7716	-219.594	14.0246	1.71393	-225.049	15.8464	32.0834	-202.205	37.6181	17.3362	
57	0.475	-174.679	31.1758	31.0633	-153.748	23.4952	11.1038	-142.574	17.9717	-11.9849	-131.38	13.7638	-26.2903	-178.952	42.0676	-36.7216	-173.969	40.9966	-56.2774	-167.871	45.2191	-76.1696	-188.36	19.6213	-44.6808	-175.848	12.1706	-61.7016	-155.72	-3.576	-80.3703	-189.144	-0.674175	-37.4387	-165.504	-13.8507	-38.449	-152.038	-18.8219	-19.0923	-210.311	-11.375	-26.4863	-195.773	-21.9161	-45.1678	-175.214	-28.7321	-50.0463	-218.322	11.7818	5.255	-221.875	18.1451	31.0804	-205.631	36.3233	19.6626	
58	0.483333	-173.343	34.1451	31.7752	-155.064	24.0046	9.81319	-143.249	21.2706	-8.67961	-132.181	16.9577	-28.2855	-182.896	41.3609	-33.7741	-176.149	40.8731	-54.0303	-170.584	44.2777	-78.7129	-189.964	18.6846	-41.536	-171.468	10.0335	-63.7597	-153.333	-1.78174	-78.9206	-191.839	-1.53287	-34.2813	-164.921	-14.7619	-35.5888	-150.699	-16.6438	-17.0163	-209.56	-14.1893	-26.5603	-196.13	-19.9519	-43.4557	-173.24	-27.9747	-51.3786	-216.614	14.1228	3.58975	-223.214	13.2707	32.5778	-208.044	34.864	18.2797	
59	0.491667	-175.565	34.974	32.3279	-156.768	25.5141	9.13556	-145.784	22.8363	-10.3488	-136.586	17.9591	-29.9715	-184.26	43.0262	-37.6007	-176.135	44.4068	-57.3278	-173.908	42.5191	-74.3185	-189.896	16.4185	-44.1702	-173.985	11.804	-60.4518	-154.433	-3.51578	-74.3128	-188.486	-3.96932	-35.1516	-161.285	-11.169	-32.7752	-147.132	-14.2758	-9.26573	-207.311	-16.1988	-23.5196	-192.146	-24.6335	-44.3047	-176.308	-27.2073	-51.9154	-221.053	6.82685	7.93204	-225.805	9.45105	31.9899	-209.172	36.3069	19.2322	
60	0.5	-179.779	36.7173	30.8079	-160.637	28.1827	8.37384	-147.071	25.6832	-15.5486	-140.38	20.8791	-30.9206	-190.584	39.1088	-33.7459	-183.285	38.8651	-55.5101	-178.498	39.5172	-80.0857	-189.744	18.3261	-43.2328	-174.039	9.54407	-58.8458	-147.525	0.385061	-73.5159	-188.566	-5.1296	-34.2385	-161.06	-12.8763	-31.885	-146.965	-9.10281	-11.6788	-204.262	-17.3648	-25.0365	-192.661	-25.7844	-41.6658	-179.018	-29.8634	-55.9254	-219.633	6.45029	3.38693	-224.964	7.88552	33.558	-213.656	28.3565	18.0195	
61	0.508333	-183.366	37.758	27.8333	-161.186	31.5914	7.01543	-149.181	28.4365	-13.108	-139.035	24.0266	-33.1178	-195.963	34.7043	-35.9564	-187.998	35.6695	-58.4164	-181.746	40.2497	-79.0954	-189.822	14.2807	-44.4678	-170.454	6.63913	-60.3781	-146.351	0.527417	-70.9315	-188.912	-9.1489	-32.6376	-159.947	-9.41907	-32.2851	-145.851	-8.23025	-8.35629	-202.009	-24.1122	-26.5736	-188.725	-26.4414	-42.6642	-174.394	-26.7549	-55.0721	-220.042	0.240213	2.83849	-224.585	3.15313	29.8972	-217.427	30.9482	19.0133	
62	0.516667	-187.696	37.2511	28.1355	-165.151	32.424	3.08843	-154.805	28.7506	-12.8521	-144.797	23.3812	-34.9795	-198.94	33.6205	-39.7192	-192.277	34.5631	-57.7965	-185.914	33.6863	-81.9014	-192.983	12.7877	-42.8172	-170.189	9.81338	-60.5846	-147.658	0.567705	-69.3561	-187.441	-9.31722	-33.9459	-161.283	-6.5919	-34.3268	-145.836	-3.45152	-8.88724	-200.526	-24.6094	-24.5336	-186.493	-27.9706	-40.9822	-170.043	-28.6494	-55.4	-222.398	-0.67171	8.35002	-224.765	1.90512	31.7272	-219.821	25.5092	17.7144	
63	0.525	-193.21	35.2473	26.217	-170.099	33.5086	3.92307	-159.719	28.9335	-15.3348	-149.516	21.8164	-34.9222	-202.483	30.4324	-39.3044	-194.231	30.6383	-61.2459	-188.354	32.0546	-82.4331	-193.209	8.53164	-44.0016	-173.302	8.47077	-58.1618	-145.476	6.25677	-65.9493	-190.718	-9.52424	-32.2524	-161.213	-5.60999	-34.5218	-145.723	-2.24945	-13.8075	-200.097	-24.4318	-22.1479	-184.171	-29.5297	-39.0093	-165.615	-23.0147	-52.1737	-221.925	-3.99574	7.01505	-228.58	-7.30722	33.2235	-224.773	22.4053	14.7515	
